<?xml version="1.0" encoding="UTF-8" standalone="no"?><svg version="1.1" width="1033.1431" height="564.98254" xml:space="preserve" viewBox="0 0 1033.1431 564.98256" xmlns="http://www.w3.org/2000/svg" xmlns:svg="http://www.w3.org/2000/svg"><path fill="#136878" d="m945.02193 304.38281-.0039.00391-4.76172.00391c-1.17392.00104-2.27265.35326-3.33204 1.43554-1.3157 1.34414-1.51508 3.06791-1.19726 4.75391 3.86288 20.60852 5.85221 40.7252 6.50195 59.70117h-59.76953c-1.35027-.00006-2.46788.47771-3.36133 1.36133-.9399.92955-1.52029 2.11468-1.51953 4.05859l.00586 17.1543c.00134 3.41304 2.35205 5.32017 5.1875 5.32031h59.4375c-.444 13.10758-1.46801 25.42855-2.86719 36.45313-1.07124 8.44065-2.34094 16.35022-3.6875 23.54492-.25756 2.05835.28581 3.35463 1.28125 4.45703 1.18768 1.18984 2.57272 1.47439 4.20508 1.47266l5.92969-.00782 9.22266.00782c2.35208.00158 4.09247-1.08213 5.13476-2.15235 1.538-1.5792 1.80191-3.26836 1.96875-4.24218 1.20518-7.03475 2.35999-14.73591 3.32227-22.9375 1.2985-11.06724 2.2467-23.43672 2.6582-36.59571h58.5723c2.8355-.00014 5.1861-1.90727 5.1875-5.32031l.0059-17.1543c.0008-1.94391-.5797-3.12904-1.5196-4.05859-.8935-.88362-2.011-1.36139-3.3613-1.36133h-58.87113c-.36024-11.34087-1.15814-23.08061-2.51953-35.10547-.91685-8.09839-2.08099-16.31894-3.51758-24.61328-.29368-1.686-.87573-3.36503-2.60937-4.71484-1.14727-.89325-2.7424-1.45634-3.81836-1.45703l-8.04492-.00586c-.0113-.00005-.02189-.00197-.03321-.00196l-1.60351.00196Z"/><path fill="#136878" d="M549.88521 0c-38.78973 0-76.72234 4.7600656-113.29687 13.935547-30.60628 7.678217-59.88544 18.45144-87.61133 32.09375-10.26425 5.050445-19.93518 10.331224-29.126 15.792057-17.90948 10.641114-34.22105 21.995723-49.50652 34.352278-11.83633 9.568328-22.53293 19.277878-31.77568 28.437698-6.16764 6.11231-11.86069 12.05742-17.83747 18.73937-.54308.60716-1.05216 1.16754-1.58184 1.76041-.93947 1.05155-2.06865 2.67433-1.51122 4.90318.17923.71662.57644 1.37263 1.1326 1.90319 1.02845.90342 2.22186 1.11847 3.29871 1.03597 1.27542-.09772 2.71379-.85196 3.51866-1.45708.53965-.40573 1.05772-.87586 1.55366-1.38437 1.83494-1.88143 3.51792-3.73548 5.29024-5.57193 3.17643-3.29136 6.4179-6.52618 9.75775-9.76077 12.62039-12.22261 28.38527-25.55443 45.58314-37.758055 9.31103-6.607111 19.09405-13.016209 29.73734-19.268511 8.73614-5.131961 25.2059-14.349258 46.00419-23.300536 18.42903-7.931583 36.31877-14.085267 53.12963-18.856404 12.13985-3.445445 24.69574-6.455438 37.37509-8.888705 11.24852-2.158682 22.63337-3.894371 34.08227-5.228467 17.58821-2.049486 35.13649-3.011825 52.69186-3.011825 40.71856 0 82.30078 5.4808 122.24414 16.660156 14.433 4.039511 28.49087 8.759009 42.19644 14.163916 17.78034 7.011826 34.14319 14.714947 51.61215 24.507959 32.189 18.044996 60.87479 39.977272 86.71188 66.054122 12.55259 12.66907 23.41079 25.43352 32.78531 37.90752 11.70074 15.56934 21.10512 30.68298 28.59281 44.47781 4.78292 8.81173 8.78259 17.09456 12.0325 24.35349 6.85317 15.30705 10.93414 27.81643 10.93414 27.81643.43125 1.18484.75306 1.68191 1.26483 2.45613 1.2454 1.6629 3.23589 2.63262 5.26251 2.63176l16.64258-.00585c1.25653-.00053 1.82644-.25542 2.50782-.65039.62477-.36218 1.49487-1.19619 1.88281-2.09766.45499-1.0573.57613-2.47531.16211-3.77149-5.98728-17.89838-14.16593-36.69145-23.85157-54.75585-15.09151-28.14676-37.9826-62.58195-71.34961-95.33985-29.46642-28.928525-59.16613-49.297506-83.96874-63.52539-30.82737-17.68397-63.53376-31.45673-98.2129-41.388672C636.46562 5.9961909 593.08948 0 549.88521 0Z"/><path fill="#136878" d="M473.5172 382.3622c.57811.07884.7095.10512 1.26134.15767 6.42212.87901 11.41905 1.78167 15.91788 2.93061 5.19352 1.32636 9.6037 2.95023 12.83274 4.74554 2.44173 1.35757 4.36848 2.81048 5.95579 4.41014.90658.91364 1.72914 1.93597 2.46682 2.99247 1.11579 1.59804 2.67311 4.48603 3.46453 6.29891.66157 1.51547 1.06743 2.67995 1.21317 3.11576.78253 2.34008 1.3352 4.79374 1.65867 7.29549.54336 4.20242.49636 8.1482-.10098 11.88981-.6141 3.84659-1.93047 9.50866-6.37853 15.45711-3.79008 5.06855-9.08176 9.12005-15.29815 12.10392-7.48924 3.62637-15.39649 5.42385-23.30862 6.33301-14.79454 1.62924-30.94885-1.31163-44.17871-7.88341-4.22347-2.12494-7.90595-4.31339-11.20978-6.77195-3.21932-2.39567-6.2767-5.12838-8.55372-8.24757-3.59806-4.92881-4.95794-9.28315-4.9305-13.63501.02602-4.12571 1.34025-7.87717 3.33528-10.68369 2.27685-3.43477 5.95755-5.91062 10.13985-7.6453 7.05799-2.92744 15.74755-3.7441 22.76026-3.49659 8.51408.31533 23.8079 2.96942 31.90153 5.83372 2.23364.81462 10.48494 4.02054 11.93023 5.49211 1.02485 1.02485 1.6818 2.52269 1.23507 3.88915-1.86574 5.67606-15.58287 8.64548-19.52458 9.22359-10.61633 1.62924-16.20841-2.3913-28.27003-7.14762-2.99568-1.15624-6.98996-2.47014-10.03821-2.7592-3.04693-.27832-6.45318.07213-9.05338 1.47016-2.65031 1.42498-4.05779 3.79866-4.01595 6.35935.03934 2.40718 1.93553 4.60181 5.89029 6.33435 1.76901.76226 3.4475 1.3907 5.08285 1.9031 4.34063 1.36003 8.3774 1.91537 12.99644 1.97264 9.05303.15172 18.64143-.5003 27.86946-2.41918 9.95075-2.06918 19.48248-5.62638 27.47208-11.28454 2.07597-1.49785 4.15193-3.67893 4.17821-6.4644.07884-5.59722-9.74915-9.01337-9.74915-9.01337-8.6586-3.62606-23.20274-5.4962-33.72316-6.63446-2.05941-.22282-3.96463-.44764-5.64134-.62205-1.86718-.16112-4.06371-.35505-6.17762-.54191-1.62561-.14369-3.10507-.24923-4.94385-.38661-1.68469-.12587-3.8716-.29408-5.51071-.43985-3.63191-.323-6.88272-.63653-9.41544-.90516-1.2802-.13578-4.63937-.5228-8.0546-1.12351-2.40408-.42285-4.82161-.88858-7.13127-1.81135-2.15154-.8596-4.34038-2.25522-6.07576-4.10343-1.52668-1.62595-2.69451-3.5485-3.06575-5.47894-1.78691-7.04251.49928-15.74447 4.41471-21.39424 10.30099-14.76826 34.37167-20.36156 52.34585-22.56892 17.39606-2.18107 45.53984-2.1548 62.64684 6.9374 2.62781 1.39274 3.99427 2.73292 3.44243 5.54467-1.12996 5.30816-5.09794 8.72431-9.9331 10.22216-5.04538 1.60296-15.53032 2.22363-20.12898 2.51269-20.60198 1.15623-45.53984.53556-65.16953 5.89628-1.52413.44673-4.17821 1.15623-5.04539 2.12852-1.64583 1.7865.04022 2.89467 2.26818 3.59927 1.63661.51758 3.73759.86886 6.56125 1.28845Z"/><path fill="#136878" d="M625.47592 438.17676c-3.83733 9.01336-13.98259 18.6574-26.54591 12.66601-12.43189-5.99139-32.22305-46.48585-32.22305-46.48585s-7.51696-15.10987-8.93625-14.7157c0 0-1.62955-2.94314-2.62831 13.55947-1.02504 16.42377.21027 48.4567-6.3605 53.50208-6.20281 5.04539-13.71977 3.04826-17.63595-2.8643-3.52193-5.83373-4.99378-19.65598-3.07512-43.93688 2.28663-24.33347 7.93749-50.21733 15.16534-58.28469 7.20156-7.98852 12.98384-2.18108 15.24419-.07884 0 0 9.64589 8.75059 25.57343 34.42423l2.78601 4.75633s14.45569 24.25463 15.98011 24.20207c0 0 1.18274 1.10368 2.23406.28906 1.52442-.42045.89363-8.19875.89363-8.19875s-2.99628-26.4357-16.1641-71.1872c0 0-1.99751-5.57095-.65707-10.80028 1.34043-5.28188 6.62333-2.81175 6.62333-2.81175s20.44824 10.27472 30.38324 43.56899c9.85616 33.29428 3.23282 63.33007-.65708 72.396"/><path fill="#136878" d="M739.39809 365.27881c-14.45292 3.33799-52.47724 5.17783-52.47724 5.17783l-4.80888 15.03413s18.99902-1.62957 32.84755-.18398c0 0 4.46726-.52567 4.99282 5.09898.18395 5.23041-.44672 10.82878-.44672 10.82878s-.28906 3.39056-5.09794 4.25792c-5.20305.89363-40.96746 2.26037-40.96746 2.26037l-5.78117 19.58116s-2.1548 4.54704 2.68036 3.23287c4.46727-1.18276 41.93975-8.22672 46.80118-7.20167 5.25561 1.28789 11.03678 8.253 9.35499 14.6136-1.99714 7.88503-39.39078 31.7241-62.14756 30.06825 0 0-11.98279.76222-22.09983-15.37581-9.40754-15.4021 3.57381-44.55043 3.57381-44.55043s-5.93884-13.58854-1.62924-18.21442c0 0 2.57525-2.31295 10.06449-2.83861l9.14476-18.97665s-10.43238.70966-16.634-6.96511c-5.80745-7.28051-6.28045-10.61851-1.83946-12.64233 4.73004-2.33923 48.2202-10.27683 78.1246-9.27805 0 0 10.40611-1.02506 19.41947 17.03166 0 0 4.36216 7.28052-3.07453 9.04151"/><path fill="#136878" d="M837.72481 375.49036s-.14124-1.10819-.6822-2.21905c-1.14166-2.34437-4.06362-4.70061-11.19548 3.32273-9.01336 9.95937-25.30575 28.66933-38.41849 54.0802 13.76969-1.55041 27.0401-9.01337 31.03437-12.82369 3.84544-3.41127 10.71022-10.2719 15.1901-19.6155 2.47134-5.15442 4.23648-11.06445 4.34904-17.56786.02919-1.68664-.07103-3.41319-.27734-5.17683m7.22646 42.78411c-9.30243 16.23982-35.58047 50.21386-70.4777 42.19906-4.29103 10.39036-8.32393 20.83163-11.98237 32.02569-6.17695 18.90017-11.31651 39.94636-14.79874 66.51695 0 0-1.20879 8.22503-8.04108 5.36072-5.3654-1.87165-13.47923-9.32247-17.73812-20.06018-1.12266-2.8305-1.94643-5.79301-2.4124-9.03832-.60596-5.07573-.52824-11.11542.26081-17.78889 1.4176-11.98949 5.03104-26.33578 10.64088-42.24207 3.86077-10.94694 8.67299-22.63277 14.37684-34.79776-5.41328-8.82942-9.11848-21.44288-5.96512-39.39078 0 0 1.52955-10.96283 9.15388-25.98358 5.6731-11.17661 14.72514-24.59991 29.008-37.42533 0 0 4.01954-3.47574 6.33201-2.39834 2.57525 1.0774 1.41384 11.91099-.63584 17.19288-2.10225 5.25561-17.02817 31.08692-17.02817 31.08692s-9.30243 17.42234-6.67462 31.16575c8.17074-12.54312 21.14671-31.02383 35.20262-45.4879 12.12909-12.4813 25.05871-21.9814 36.35314-22.08482 6.57084-.06016 13.08553 3.12547 17.52124 11.286 3.60496 6.63215 5.31371 15.53721 5.31371 24.83191 0 12.24556-2.94314 25.30921-8.40897 35.03209"/><path fill="#136878" d="M360.7173 318.84274s-2.6599 4.79437-3.28974 5.6815c-.29524.47977-1.26373 1.81027-2.45491 2.82825-.9221.78803-1.91357 1.34218-3.23355 1.46331-1.35989.12479-2.74066-.37897-4.21836-1.6112-3.54753-3.15336-5.57692-7.96483-5.73459-12.69488-.07882-2.07596.25862-4.36215-.13555-6.0965-.3454-1.54741-1.31458-3.13769-2.38528-4.70667-.96575-1.41517-2.0141-2.76266-2.76181-4.09608-.66684-1.18341-1.20868-2.37165-1.64967-3.46916-1.40113-3.48707-1.78424-6.5667-1.92415-9.40489-.63067-11.61489 5.49211-22.39652 13.45436-30.83177 8.04108-8.56664 18.42644-15.60152 29.8311-20.43668 10.80028-4.5461 26.69296-7.64691 38.54435-3.54753 3.86287 1.34018 9.22359 4.62493 11.93023 8.04108.57812.73578 1.05112 1.49784 1.62924 1.86574.52556.34161 1.89202.473 2.9957.68323 3.78403.65695 9.22359 3.52125 11.45722 5.41327 4.44099 3.86287 6.88485 7.5418 8.0148 12.87624 1.06547 5.00895.19803 10.68964-1.82054 15.7559-2.13692 5.36331-5.51585 10.27545-9.1374 13.96456-12.06162 12.35068-23.99185 21.04871-39.44333 27.09266-4.9267 1.92867-11.53008 3.51491-16.69482 4.11697-2.72174.31728-5.26974.4149-7.72816.31631-2.71176-.10875-5.41194-.46548-7.7001-.88568 0 0-5.69607-1.15963-7.54504-2.31798Zm25.62863-18.84361c6.15308-.59504 11.51778-1.68816 16.46989-3.25592 2.68416-.84976 5.37521-1.93572 7.99265-3.19671 5.71415-2.75289 11.54498-6.76384 15.25213-10.12479 1.96445-1.781 3.66572-3.6058 5.01651-5.40807 2.69289-3.59294 4.29003-7.64378 3.78509-11.90548-.42045-3.57381-2.75919-6.28045-5.72861-7.54179-6.5631-2.85741-13.97247.53563-19.34064 3.6391-3.86089 2.2428-9.70383 6.55815-15.14846 11.19661-6.44795 5.49322-12.58764 11.72182-16.43774 16.70039-2.18356 2.97983-4.41318 5.9229-6.44225 9.00957.31248.85854 7.49002 1.25884 11.45801.99606m-32.34133-9.75721c2.0981-3.3209 4.54397-6.56974 6.89212-9.63107 2.60292-3.39347 7.11537-8.50382 8.88296-10.37514 3.93248-4.16327 8.11875-8.22484 11.71489-11.30531 2.1548-1.81318 4.5963-3.88769 4.5963-3.88769s-1.72323.03165-3.95686.47838c-1.08197.20994-2.98419.71086-4.53226 1.27986-1.88592.69318-3.43531 1.34058-4.8033 2.03216-4.26396 2.15563-7.97105 5.0717-9.70524 6.55815-3.21811 2.76784-6.62333 6.39664-8.78264 10.32806-1.25731 2.28917-2.12128 4.71076-2.274 7.0949-.10543 1.64594.13885 3.28824.783 4.89063.473 1.12996 1.18503 2.53707 1.18503 2.53707"/><path fill="#136878" d="M374.49961 342.68237c.473.07883 1.18251.28905 1.81318.52556 5.41328 2.04968 7.64691 7.06879 8.98709 12.58718 3.07453 12.77112 4.38843 41.04629 4.91399 52.10935.3679 8.30386.57812 16.47633.91974 24.70135.28905 6.9374.86717 16.18727-.57812 22.70423-.52556 2.33874-2.10224 5.07166-4.36216 6.46439-2.54897 1.65552-8.40897 1.78691-11.64117 1.10368-7.90969-1.62924-10.48493-6.72718-11.61489-14.55803-2.70664-18.70996-1.39274-55.44666.18395-70.92443.52556-5.12421 2.44385-21.52171 5.12421-28.38028.91974-2.33874 2.86431-6.98995 6.25418-6.333"/><path fill="#136878" d="M83.515833 207.78691c-6.310899-.09097-17.711074-.02067-30.816931 1.62876-9.007998 1.1337-18.362876 2.87982-26.96012 5.26011-4.760651 1.28832-8.73076 2.8636-12.176809 5.11469-3.934342 2.57007-7.1653022 6.00158-9.7568366 10.55428-2.4175772 4.25703-4.69318081 8.94409-3.45811423 13.67413 1.05112043 3.99426 6.47587133 5.31034 11.37608283 6.13659 4.414707.68323 14.425999 1.20368 17.080078-2.02852.747973-.77829 1.085306-2.98389.078125-4.4414-.998564-1.76063-3.519923-3.02736-5.9375-3.47408-2.040469-.37278-5.467886-.71302-7.606622-1.01752-1.473235-.20975-2.239979-.46444-2.634898-.67374-.114797-.06084-.198176-.11784-.258355-.16879-.11008-.0932-.123172-.19712-.123172-.19712s.037913-.10243.128091-.19222c.115548-.11505.28484-.2735.455894-.39763 1.698508-1.09972 7.157543-2.64801 8.543905-3.00198 6.244278-1.73219 15.850659-2.75756 23.697443-3.16575 7.753283-.40332 15.619471-.40441 22.049667-.16625 25.980603.82846 51.165089 5.01016 76.428339 12.22035 13.69154 3.9076 27.66288 8.77122 42.45643 14.57652 20.78812 8.2419 42.13239 19.51989 61.82598 33.39422 17.45506 12.29727 33.02291 26.23473 45.09589 41.63703 7.3075 9.41544 16.06111 23.60444 20.43069 37.38237 1.48565 4.68446 2.75293 10.05405 2.88806 16.38907.13095 6.13884-.80416 13.20495-3.45232 20.15751-4.98115 13.07773-15.49352 25.28251-32.81249 34.33436-6.4006 3.34532-13.73908 6.28051-22.0634 8.64946-8.98219 2.55617-18.24162 4.19633-27.45809 5.19299-10.87304 1.17581-21.73094 1.42744-32.77762 1.13496-1.55118-.04107-4.82381-.23488-8.54035-.57209-9.4673-.85898-18.07911-2.33583-23.02503-3.26855l-1.70508-79.98797c12.401.18722 26.03666 1.64746 38.90086 3.8899 7.18325 1.25216 19.30596 3.68152 34.26437 8.50815 3.0004 1.01488 6.57707 3.1899 6.86613 6.36953.11601 1.34857-.36546 2.52576-1.21622 3.66776-2.24984 3.02005-5.94253 5.27523-9.06445 6.79107-1.87966.91269-3.51655 1.59641-4.26436 2.43961-.81461 1.10367-.878 2.68271.25196 3.57617 1.5474 1.2221 3.9675 2.0862 6.4254 2.64613 12.39984 2.82477 20.66349-2.73589 25.46856-8.01916 5.19997-5.71747 6.68724-10.15143 7.17796-14.79318.84194-7.96397-2.79571-14.20493-4.63254-16.78976-4.56361-6.42199-11.57503-10.7391-17.22845-13.44442-12.81266-6.1312-27.43662-9.28746-34.85934-10.60844-9.44493-1.68086-21.46429-3.04037-35.34962-3.31959-6.46173-.12994-12.96096.18389-12.96096.18389s-.26333-10.85256-.73633-18.05273c-.78835-11.85139-4.07171-35.1077-14.8457-41.8086-1.97085-1.20879-4.3894-1.33946-5.75586.5-2.10224 2.73292-4.152 13.13996-4.625 15.82032-.45004 2.55232-.91678 5.76916-1.35811 9.18497-.69357 5.36801-1.2804 11.3533-1.67172 16.19978-.21905 2.69707-.81906 11.49762-.93512 20.79694-.13139.13139-.3179.33732-.50185.46871 0 0-4.84595.73063-11.03741 1.96234-20.36457 4.05125-34.504858 9.68379-40.046568 12.11577-9.90681 4.33588-24.11907 11.99703-28.433594 22.04688-.999886 2.4862-1.420299 4.04486-1.538617 6.58134-.261357 5.60295 1.800827 10.53478 3.562055 13.67122 4.672704 8.82139 14.030754 18.33706 21.89704 25.4312 5.676278 5.1191 13.944488 11.49038 20.596505 16.03399 5.420049 3.70213 9.512939 6.31341 13.299039 8.54212 4.41471 2.59874 8.73867 4.90852 13.14819 7.00764 2.38735 1.13648 5.32506 2.57135 8.02797 3.85351 0 0 .40227 3.79088.92907 8.12923.53511 4.64864 1.00543 9.36346 2.85609 13.70873.70744 1.58039 1.52493 2.98749 2.64062 4.23633 3.10078 3.47079 6.59155 4.19485 8.04883 4.45898 2.96167.53681 5.78132.24532 8.75391-.31445 1.23242-.22928 2.49621-.66301 3.47266-1.16992 1.6373-.84998 2.90491-2.1279 3.77734-3.95508 1.31366-2.6273 1.78603-6.81782 1.82226-7.35352.16292-2.40828.04883-5.11523.04883-5.11523s9.5578 2.27363 16.23243 3.48242c10.94805 1.92779 21.4591 3.07549 33.92773 3.26758 15.04551.2318 31.09581-1.70321 48.28711-5.85156 10.39026-2.50723 20.27439-5.82645 29.93164-10.3086 8.95759-4.15742 16.96644-9.11229 23.91406-14.84765 5.21714-4.30683 10.65797-9.72266 15.90039-17.16797 1.49143-2.11813 2.81101-4.16873 3.78711-5.85938.30003-.51966 1.13224-1.73732 2.23438-3.59961 3.06369-5.17672 6.86622-13.17459 8.84961-23.36328.53307-3.02316.91823-5.99336 1.10742-8.96679.7312-13.00517-1.90918-26.11227-6.99836-38.06997-1.1417-2.8083-5.21639-12.75857-13.97511-25.36855-7.64116-11.00102-16.52706-21.22741-25.82241-30.505-6.17639-6.16461-10.86483-10.47918-18.82645-17.15805-11.27627-9.35425-22.03149-16.38653-25.34252-18.56761-10.9339-7.16428-23.59029-14.19839-34.69448-19.56577-17.89683-8.6507-35.38536-15.28328-52.80493-20.67665-6.04643-1.87207-11.66342-3.46137-16.70323-4.80201-10.44736-2.7791-26.26196-6.59789-43.02379-8.74761-10.13931-1.30038-19.902623-1.96734-28.125367-2.08586ZM133.2856 373.76172s-.26385 11.82671-.3164 23.7832c-.0573 12.34886.08835 24.82104.23269 33.61195.12044 7.33435.23996 12.10627.23996 12.10627s-8.52093-2.78857-12.92773-4.98775c-8.09191-3.4796-15.79456-7.5431-23.14526-12.1345-9.299605-5.80873-17.108751-11.73546-24.399498-18.27878-1.491872-1.33893-4.123708-3.87656-5.44642-5.21459-3.339741-3.31052-6.695574-6.67059-5.899446-11.17291.604393-3.44242 7.970979-6.70725 10.800781-7.49023 6.734104-1.91942 13.534666-3.66439 20.736322-5.13539 7.654491-1.5635 15.060281-2.7707 20.381301-3.3529 7.33879-1.12127 19.7437-1.73437 19.7437-1.73437Z"/></svg>